<?xml version="1.0" encoding="iso-8859-1"?>
<!-- Uploaded to: SVG Repo, www.svgrepo.com, Generator: SVG Repo Mixer Tools -->
<svg fill="#000000" height="800px" width="800px" version="1.1" id="Layer_1" xmlns="http://www.w3.org/2000/svg" xmlns:xlink="http://www.w3.org/1999/xlink" 
	 viewBox="0 0 507.9 507.9" xml:space="preserve">
<g>
	<g>
		<path d="M437.449,0h-366.8c-23.4,0-42.4,19-42.4,42.3v409.2c0,23.3,19,42.3,42.3,42.3h34.8c0,7.8,6.3,14.1,14.1,14.1h32
			c7.8,0,14.1-6.3,14.1-14.1h176.8c0,7.8,6.3,14.1,14.1,14.1h32c7.8,0,14.1-6.3,14.1-14.1h34.8c23.3,0,42.3-19,42.3-42.3V42.3
			C479.849,19,460.849,0,437.449,0z M451.549,451.7c0.1,7.6-6.3,14-14.1,14h-366.8c-7.8,0-14.1-6.3-14.1-14.1V255.9h17.7
			c7.8,0,14.1-6.3,14.1-14.1s-6.3-14.1-14.1-14.1h-17.8v-28.2h46c7.8,0,14.1-6.3,14.1-14.1s-6.3-14.1-14.1-14.1h-46v-35h395.1V451.7
			z M451.649,108h-395.2V42.3c0-7.7,6.4-14.1,14.2-14.1h366.9c7.8,0,14.1,6.3,14.1,14.1V108z"/>
	</g>
</g>
<g>
	<g>
		<path d="M254.049,171.2c-69.3,0-125.6,56.3-125.6,125.6s56.3,125.6,125.6,125.6s125.6-56.3,125.6-125.6
			S323.349,171.2,254.049,171.2z M254.049,394.2c-53.7,0-97.4-43.7-97.4-97.4c0-53.7,43.7-97.4,97.4-97.4s97.4,43.7,97.4,97.4
			C351.449,350.5,307.749,394.2,254.049,394.2z"/>
	</g>
</g>
<g>
	<g>
		<path d="M254.049,227.7c-7.8,0-14.1,6.3-14.1,14.1s6.3,14.1,14.1,14.1c22.6,0,40.9,18.4,40.9,40.9c0,7.8,6.3,14.1,14.1,14.1
			s14.1-6.3,14.1-14.1C323.249,258.7,292.149,227.7,254.049,227.7z"/>
	</g>
</g>
<g>
	<g>
		<path d="M130.149,55.3h-31.8c-7.8,0-14.1,6.3-14.1,14.1c0,7.8,6.3,14.1,14.1,14.1h31.8c7.8,0,14.1-6.3,14.1-14.1
			C144.249,61.6,137.949,55.3,130.149,55.3z"/>
	</g>
</g>
<g>
	<g>
		<path d="M240.049,55.3h-31.8c-7.8,0-14.1,6.3-14.1,14.1c0,7.8,6.3,14.1,14.1,14.1h31.8c7.8,0,14.1-6.3,14.1-14.1
			C254.149,61.6,247.849,55.3,240.049,55.3z"/>
	</g>
</g>
</svg>